<?xml version="1.0" encoding="iso-8859-1"?>
<!-- Generator: Adobe Illustrator 19.0.0, SVG Export Plug-In . SVG Version: 6.00 Build 0)  -->
<svg version="1.1" id="Capa_1" xmlns="http://www.w3.org/2000/svg" xmlns:xlink="http://www.w3.org/1999/xlink" x="0px" y="0px"
	 viewBox="0 0 512 512" style="enable-background:new 0 0 512 512;" xml:space="preserve">
<g>
	<g>
		<path d="M142.537,120.923l-38.729,125.934h54.016l37.55-122.13C177.911,130.158,159.04,128.805,142.537,120.923z"/>
	</g>
</g>
<g>
	<g>
		<path d="M457.143,118.126v38.08c5.797-0.869,11.675-0.951,17.49-0.247c0.265,0.037,0.53,0.101,0.795,0.137v-37.97
			C469.376,119.104,463.195,119.104,457.143,118.126z"/>
	</g>
</g>
<g>
	<g>
		<polygon points="72,356.571 56.155,475.429 164.571,475.429 164.571,356.571 		"/>
	</g>
</g>
<g>
	<g>
		<circle cx="466.286" cy="54.857" r="9.143"/>
	</g>
</g>
<g>
	<g>
		<path d="M466.286,9.143c-25.243,0-45.714,20.471-45.714,45.714c0.027,25.234,20.48,45.687,45.714,45.714
			c25.243,0,45.714-20.471,45.714-45.714C512,29.614,491.529,9.143,466.286,9.143z M466.286,82.286
			c-15.15,0-27.429-12.279-27.429-27.429c0.018-15.141,12.288-27.41,27.429-27.429c15.15,0,27.429,12.279,27.429,27.429
			C493.714,70.007,481.435,82.286,466.286,82.286z"/>
	</g>
</g>
<g>
	<g>
		<path d="M173.714,0c-30.299,0-54.857,24.558-54.857,54.857c0.037,30.281,24.576,54.83,54.857,54.857
			c30.299,0,54.857-24.558,54.857-54.857C228.571,24.558,204.014,0,173.714,0z M173.714,91.429
			c-20.197,0-36.571-16.375-36.571-36.571c0.027-20.187,16.384-36.544,36.571-36.571c20.197,0,36.571,16.375,36.571,36.571
			C210.286,75.054,193.911,91.429,173.714,91.429z"/>
	</g>
</g>
<g>
	<g>
		<path d="M408.549,27.429H241.472c7.177,17.582,7.177,37.275,0,54.857h133.385v0.101c-52.178,1.216-100.571,15.113-100.571,118.757
			c0,89.966-78.949,91.41-82.286,91.429h-9.134l-0.009-27.429h-128c-20.197,0-36.571,16.375-36.571,36.571
			s16.375,36.571,36.571,36.571h128.009l-0.009-27.429H192c1.006,0,100.571-1.253,100.571-109.714
			c0-93.166,39.625-100.571,91.429-100.571c5.047,0,9.143-4.096,9.143-9.143v-9.143h15.406
			C400.201,64.951,400.201,44.763,408.549,27.429z"/>
	</g>
</g>
<g>
	<g>
		<path d="M481.033,176.201l-0.037-0.018c-2.807-0.997-5.714-1.691-8.667-2.075c-6.958-0.914-14.034-0.21-20.681,2.039l-0.229,0.082
			c-18.45,6.345-30.839,23.698-30.848,43.2v9.143c0,5.047,4.096,9.143,9.143,9.143c5.047,0,9.143-4.096,9.143-9.143v-9.143
			c0.027-15.15,12.315-27.419,27.465-27.429c7.47-0.009,14.619,3.035,19.785,8.421c5.175,5.385,7.918,12.654,7.598,20.114v8.037
			c0,5.047,4.096,9.143,9.143,9.143c5.047,0,9.143-4.096,9.143-9.143v-7.259C512.274,201.234,499.867,183.168,481.033,176.201z"/>
	</g>
</g>
<g>
	<g>
		<path d="M210.286,493.714H9.143c-5.047,0-9.143,4.096-9.143,9.143C0,507.904,4.096,512,9.143,512h201.143
			c5.047,0,9.143-4.096,9.143-9.143C219.429,497.81,215.333,493.714,210.286,493.714z"/>
	</g>
</g>
<g>
	<g>
		<circle cx="173.714" cy="54.857" r="18.286"/>
	</g>
</g>
<g>
</g>
<g>
</g>
<g>
</g>
<g>
</g>
<g>
</g>
<g>
</g>
<g>
</g>
<g>
</g>
<g>
</g>
<g>
</g>
<g>
</g>
<g>
</g>
<g>
</g>
<g>
</g>
<g>
</g>
</svg>
